<?plantuml 1.2026.2beta3?><svg xmlns="http://www.w3.org/2000/svg" xmlns:xlink="http://www.w3.org/1999/xlink" contentStyleType="text/css" data-diagram-type="DESCRIPTION" height="381px" preserveAspectRatio="none" style="width:619px;height:381px;background:#FFFFFF;" version="1.1" viewBox="0 0 619 381" width="619px" zoomAndPan="magnify"><title>Halc&#243;n - Casos de Uso (Cliente)</title><defs/><g><g class="title" data-source-line="1"><text fill="#000000" font-family="sans-serif" font-size="14" font-weight="bold" lengthAdjust="spacing" textLength="247.1875" x="179.3112" y="22.9951">Halc&#243;n - Casos de Uso (Cliente)</text></g><!--cluster Web App Halc?n--><g class="cluster" data-qualified-name="Web App Halc.n" data-source-line="7" id="ent0003"><rect fill="none" height="274" rx="2.5" ry="2.5" style="stroke:#181818;stroke-width:1;" width="511.67" x="102.14" y="44.2969"/><text fill="#000000" font-family="sans-serif" font-size="14" font-weight="bold" lengthAdjust="spacing" textLength="129.4316" x="293.2592" y="59.292">Web App Halc&#243;n</text></g><!--entity UC_Consultar--><g class="entity" data-qualified-name="Web App Halc.n.UC_Consultar" data-source-line="8" id="ent0004"><ellipse cx="204.5889" cy="153.2945" fill="#F1F1F1" rx="80.9589" ry="24.3576" style="stroke:#181818;stroke-width:0.5;"/><text fill="#000000" font-family="sans-serif" font-size="14" lengthAdjust="spacing" textLength="118.9727" x="145.1026" y="152.287">Consultar estado</text><text fill="#000000" font-family="sans-serif" font-size="14" lengthAdjust="spacing" textLength="69.6787" x="171.9747" y="168.5839">de pedido</text></g><!--entity UC_NoCliente--><g class="entity" data-qualified-name="Web App Halc.n.UC_NoCliente" data-source-line="9" id="ent0005"><ellipse cx="512.3924" cy="172.2954" fill="#F1F1F1" rx="83.7424" ry="19.1485" style="stroke:#181818;stroke-width:0.5;"/><text fill="#000000" font-family="sans-serif" font-size="14" lengthAdjust="spacing" textLength="139.4189" x="442.6829" y="176.9438">Ingresar No. Cliente</text></g><!--entity UC_NoFactura--><g class="entity" data-qualified-name="Web App Halc.n.UC_NoFactura" data-source-line="10" id="ent0006"><ellipse cx="512.3944" cy="98.3017" fill="#F1F1F1" rx="85.4244" ry="19.4849" style="stroke:#181818;stroke-width:0.5;"/><text fill="#000000" font-family="sans-serif" font-size="14" lengthAdjust="spacing" textLength="143.3018" x="440.7435" y="102.9502">Ingresar No. Factura</text></g><!--entity UC_Estatus--><g class="entity" data-qualified-name="Web App Halc.n.UC_Estatus" data-source-line="11" id="ent0007"><ellipse cx="512.3886" cy="254.3005" fill="#F1F1F1" rx="59.5886" ry="14.5236" style="stroke:#181818;stroke-width:0.5;"/><text fill="#000000" font-family="sans-serif" font-size="14" lengthAdjust="spacing" textLength="80.0283" x="472.3744" y="258.9489">Ver estatus</text></g><!--entity UC_Evidencia--><g class="entity" data-qualified-name="Web App Halc.n.UC_Evidencia" data-source-line="12" id="ent0008"><ellipse cx="204.5869" cy="272.2975" fill="#F1F1F1" rx="86.4469" ry="24.9106" style="stroke:#181818;stroke-width:0.5;"/><text fill="#000000" font-family="sans-serif" font-size="14" lengthAdjust="spacing" textLength="95.7236" x="156.7251" y="267.146">Ver evidencia</text><text fill="#000000" font-family="sans-serif" font-size="14" lengthAdjust="spacing" textLength="119.6836" x="146.9702" y="283.4429">de entrega (foto)</text></g><!--entity Cliente--><g class="entity" data-qualified-name="Cliente" data-source-line="5" id="ent0002"><ellipse cx="30.5718" cy="123.6469" fill="#F1F1F1" rx="8" ry="8" style="stroke:#181818;stroke-width:0.5;"/><path d="M30.5718,131.6469 L30.5718,158.6469 M17.5718,139.6469 L43.5718,139.6469 M30.5718,158.6469 L17.5718,173.6469 M30.5718,158.6469 L43.5718,173.6469" fill="none" style="stroke:#181818;stroke-width:0.5;"/><text fill="#000000" font-family="sans-serif" font-size="14" lengthAdjust="spacing" textLength="49.1436" x="6" y="188.142">Cliente</text></g><g class="entity" data-qualified-name="GMN14" data-source-line="23" id="ent0015"><path d="M416.04,334.1569 L416.04,374.4225 A0,0 0 0 0 416.04,374.4225 L608.7378,374.4225 A0,0 0 0 0 608.7378,374.4225 L608.7378,344.1569 L598.7378,334.1569 L438.56,334.1569 L268.95,289.2869 L430.56,334.1569 L416.04,334.1569 A0,0 0 0 0 416.04,334.1569" fill="#FEFFDD" style="stroke:#181818;stroke-width:0.5;"/><path d="M598.7378,334.1569 L598.7378,344.1569 L608.7378,344.1569 L598.7378,334.1569" fill="#FEFFDD" style="stroke:#181818;stroke-width:0.5;"/><text fill="#000000" font-family="sans-serif" font-size="13" lengthAdjust="spacing" textLength="171.6978" x="422.04" y="351.2238">Solo aplica si el estatus es</text><text fill="#000000" font-family="sans-serif" font-size="13" lengthAdjust="spacing" textLength="78.6094" x="422.04" y="366.3566">"Delivered".</text></g><!--link Cliente to UC_Consultar--><g class="link" data-entity-1="ent0002" data-entity-2="ent0004" data-link-type="dependency" data-source-line="15" id="lnk9"><path d="M55.49,153.2969 C73.31,153.2969 92.74,153.2969 117.51,153.2969" fill="none" id="Cliente-to-UC_Consultar" style="stroke:#181818;stroke-width:1;"/><polygon fill="#181818" points="123.51,153.2969,114.51,149.2969,118.51,153.2969,114.51,157.2969,123.51,153.2969" style="stroke:#181818;stroke-width:1;"/></g><!--link UC_Consultar to UC_NoCliente--><g class="link" data-entity-1="ent0004" data-entity-2="ent0005" data-link-type="dependency" data-source-line="17" id="lnk10"><path d="M284.34,158.1869 C329.38,160.9869 379.7516,164.1141 425.0516,166.9341" fill="none" id="UC_Consultar-to-UC_NoCliente" style="stroke:#181818;stroke-width:1;stroke-dasharray:7,7;"/><polygon fill="#181818" points="431.04,167.3069,422.3059,162.7554,426.0497,166.9962,421.8089,170.74,431.04,167.3069" style="stroke:#181818;stroke-width:1;"/><text fill="#000000" font-family="sans-serif" font-size="13" lengthAdjust="spacing" textLength="63.0068" x="322.04" y="157.3638">&#171;include&#187;</text></g><!--link UC_Consultar to UC_NoFactura--><g class="link" data-entity-1="ent0004" data-entity-2="ent0006" data-link-type="dependency" data-source-line="18" id="lnk11"><path d="M274.98,140.8169 C325.64,131.6969 388.0447,120.4788 438.2047,111.4588" fill="none" id="UC_Consultar-to-UC_NoFactura" style="stroke:#181818;stroke-width:1;stroke-dasharray:7,7;"/><polygon fill="#181818" points="444.11,110.3969,434.5441,108.0529,439.1889,111.2818,435.96,115.9266,444.11,110.3969" style="stroke:#181818;stroke-width:1;"/><text fill="#000000" font-family="sans-serif" font-size="13" lengthAdjust="spacing" textLength="63.0068" x="322.04" y="117.3638">&#171;include&#187;</text></g><!--link UC_Consultar to UC_Estatus--><g class="link" data-entity-1="ent0004" data-entity-2="ent0007" data-link-type="dependency" data-source-line="19" id="lnk12"><path d="M260.26,171.3469 C322.62,191.9469 417.093,223.1443 470.113,240.6643" fill="none" id="UC_Consultar-to-UC_Estatus" style="stroke:#181818;stroke-width:1;stroke-dasharray:7,7;"/><polygon fill="#181818" points="475.81,242.5469,468.5195,235.9251,471.0625,240.9781,466.0094,243.5211,475.81,242.5469" style="stroke:#181818;stroke-width:1;"/><text fill="#000000" font-family="sans-serif" font-size="13" lengthAdjust="spacing" textLength="63.0068" x="322.04" y="188.3638">&#171;include&#187;</text></g><!--link UC_Evidencia to UC_Estatus--><g class="link" data-entity-1="ent0008" data-entity-2="ent0007" data-link-type="dependency" data-source-line="21" id="lnk13"><path d="M291.04,273.3769 C321.1,273.2169 355.09,272.4369 386.04,270.2969 C410.88,268.5769 432.3875,266.0658 455.2575,262.8758" fill="none" id="UC_Evidencia-to-UC_Estatus" style="stroke:#181818;stroke-width:1;stroke-dasharray:7,7;"/><polygon fill="#181818" points="461.2,262.0469,451.7337,259.3285,456.2479,262.7376,452.8389,267.2518,461.2,262.0469" style="stroke:#181818;stroke-width:1;"/><text fill="#000000" font-family="sans-serif" font-size="13" lengthAdjust="spacing" textLength="61.1851" x="323.04" y="266.3638">&#171;extend&#187;</text></g><?plantuml-src ZP9DJiCm48NtFiLJLksYFG2g8g40WaqtLM63X0Px6gmQJsGx5GXnAex0nN19Kb9-95Q9Cz-RV2zAiianBidfzpUF6IgA4c4OwoYOLCwoJpnLZZS9IH1i_P1WR62Th7WLjzOt5EWH3UajrRnAptdVVao-TgmKwIG1HR-f04NqzqeTC1GtV8_JfXbC2hmee8siAUPf9JwsBb40nqH6RlrUiM5ZZNokN5Tt1sOSlF9ru9XpIvbZx903Inb4_WfSPFasq5UWVp0EN7CdbTeuSEVTyGUriuQzjjJPvpS7hWcJZIIP7h83f5wLwlqmcvN73TNuXFcyFEg34omMrclN6YxBFzY-oZ_OliutKerbVqFvAR4tcVIIbReVHpR77O6LE04rpcf2j60tVCnypUFYZ9tTSM1Jp5LUX_so3m00?></g></svg>