<?plantuml 1.2026.2beta3?><svg xmlns="http://www.w3.org/2000/svg" xmlns:xlink="http://www.w3.org/1999/xlink" contentStyleType="text/css" data-diagram-type="DESCRIPTION" height="1549px" preserveAspectRatio="none" style="width:1242px;height:1549px;background:#FFFFFF;" version="1.1" viewBox="0 0 1242 1549" width="1242px" zoomAndPan="magnify"><title>Halc&#243;n - Casos de Uso (Dashboard Interno)</title><defs/><g><g class="title" data-source-line="1"><text fill="#000000" font-family="sans-serif" font-size="14" font-weight="bold" lengthAdjust="spacing" textLength="339.7734" x="444.2533" y="22.9951">Halc&#243;n - Casos de Uso (Dashboard Interno)</text></g><!--cluster Web App Halc?n (Dashboard)--><g class="cluster" data-qualified-name="Web App Halc.n .Dashboard." data-source-line="18" id="ent0013"><rect fill="none" height="1415" rx="2.5" ry="2.5" style="stroke:#181818;stroke-width:1;" width="953.3" x="282.98" y="114.9969"/><text fill="#000000" font-family="sans-serif" font-size="14" font-weight="bold" lengthAdjust="spacing" textLength="232.4834" x="643.3883" y="129.992">Web App Halc&#243;n (Dashboard)</text></g><!--cluster Gesti?n de usuarios--><g class="cluster" data-qualified-name="Web App Halc.n .Dashboard..Gesti.n de usuarios" data-source-line="21" id="ent0015"><rect fill="none" height="171" rx="2.5" ry="2.5" style="stroke:#181818;stroke-width:1;" width="184.69" x="344.97" y="157.9969"/><text fill="#000000" font-family="sans-serif" font-size="14" font-weight="bold" lengthAdjust="spacing" textLength="157.0283" x="358.8008" y="172.992">Gesti&#243;n de usuarios</text></g><!--cluster Gesti?n de pedidos--><g class="cluster" data-qualified-name="Web App Halc.n .Dashboard..Gesti.n de pedidos" data-source-line="26" id="ent0018"><rect fill="none" height="530" rx="2.5" ry="2.5" style="stroke:#181818;stroke-width:1;" width="562.27" x="325.45" y="352.9969"/><text fill="#000000" font-family="sans-serif" font-size="14" font-weight="bold" lengthAdjust="spacing" textLength="151.9697" x="530.6001" y="367.992">Gesti&#243;n de pedidos</text></g><!--cluster Ciclo de vida / Evidencias--><g class="cluster" data-qualified-name="Web App Halc.n .Dashboard..Ciclo de vida . Evidencias" data-source-line="40" id="ent0028"><rect fill="none" height="431" rx="2.5" ry="2.5" style="stroke:#181818;stroke-width:1;" width="539.78" x="672.5" y="1074.9969"/><text fill="#000000" font-family="sans-serif" font-size="14" font-weight="bold" lengthAdjust="spacing" textLength="199.1582" x="842.8109" y="1089.992">Ciclo de vida / Evidencias</text></g><!--cluster Abasto--><g class="cluster" data-qualified-name="Web App Halc.n .Dashboard..Abasto" data-source-line="49" id="ent0035"><rect fill="none" height="103" rx="2.5" ry="2.5" style="stroke:#181818;stroke-width:1;" width="598.67" x="306.98" y="947.9969"/><text fill="#000000" font-family="sans-serif" font-size="14" font-weight="bold" lengthAdjust="spacing" textLength="54.9473" x="578.8414" y="962.992">Abasto</text></g><!--entity UC_Login--><g class="entity" data-qualified-name="Web App Halc.n .Dashboard..UC_Login" data-source-line="19" id="ent0014"><ellipse cx="437.3211" cy="917.0011" fill="#F1F1F1" rx="64.3711" ry="15.2742" style="stroke:#181818;stroke-width:0.5;"/><text fill="#000000" font-family="sans-serif" font-size="14" lengthAdjust="spacing" textLength="91.793" x="391.4246" y="921.6495">Iniciar sesi&#243;n</text></g><!--entity UC_AddUser--><g class="entity" data-qualified-name="Web App Halc.n .Dashboard..Gesti.n de usuarios.UC_AddUser" data-source-line="22" id="ent0016"><ellipse cx="437.3177" cy="294.9944" fill="#F1F1F1" rx="75.6377" ry="17.5275" style="stroke:#181818;stroke-width:0.5;"/><text fill="#000000" font-family="sans-serif" font-size="14" lengthAdjust="spacing" textLength="120.2715" x="377.1819" y="299.6428">Registrar usuario</text></g><!--entity UC_AssignRole--><g class="entity" data-qualified-name="Web App Halc.n .Dashboard..Gesti.n de usuarios.UC_AssignRole" data-source-line="23" id="ent0017"><ellipse cx="437.3153" cy="217.9947" fill="#F1F1F1" rx="76.3453" ry="24.5578" style="stroke:#181818;stroke-width:0.5;"/><text fill="#000000" font-family="sans-serif" font-size="14" lengthAdjust="spacing" textLength="75.5166" x="399.557" y="212.3098">Asignar rol</text><text fill="#000000" font-family="sans-serif" font-size="14" lengthAdjust="spacing" textLength="110.8926" x="381.869" y="228.6067">(departamento)</text></g><!--entity UC_List--><g class="entity" data-qualified-name="Web App Halc.n .Dashboard..Gesti.n de pedidos.UC_List" data-source-line="27" id="ent0019"><ellipse cx="437.3232" cy="850.9935" fill="#F1F1F1" rx="66.8332" ry="15.7666" style="stroke:#181818;stroke-width:0.5;"/><text fill="#000000" font-family="sans-serif" font-size="14" lengthAdjust="spacing" textLength="98.2803" x="388.1831" y="855.642">Listar pedidos</text></g><!--entity UC_Search--><g class="entity" data-qualified-name="Web App Halc.n .Dashboard..Gesti.n de pedidos.UC_Search" data-source-line="28" id="ent0020"><ellipse cx="783.1471" cy="835.9983" fill="#F1F1F1" rx="70.3571" ry="16.4714" style="stroke:#181818;stroke-width:0.5;"/><text fill="#000000" font-family="sans-serif" font-size="14" lengthAdjust="spacing" textLength="107.2764" x="729.5089" y="840.6467">Buscar pedidos</text></g><!--entity UC_View--><g class="entity" data-qualified-name="Web App Halc.n .Dashboard..Gesti.n de pedidos.UC_View" data-source-line="29" id="ent0021"><ellipse cx="783.1455" cy="764" fill="#F1F1F1" rx="88.5655" ry="20.1131" style="stroke:#181818;stroke-width:0.5;"/><text fill="#000000" font-family="sans-serif" font-size="14" lengthAdjust="spacing" textLength="150.4863" x="707.9024" y="768.6484">Ver detalle de pedido</text></g><!--entity UC_Create--><g class="entity" data-qualified-name="Web App Halc.n .Dashboard..Gesti.n de pedidos.UC_Create" data-source-line="31" id="ent0022"><ellipse cx="437.3192" cy="475.9967" fill="#F1F1F1" rx="73.9492" ry="17.1898" style="stroke:#181818;stroke-width:0.5;"/><text fill="#000000" font-family="sans-serif" font-size="14" lengthAdjust="spacing" textLength="116.1699" x="379.2342" y="480.6452">Registrar pedido</text></g><!--entity UC_Edit--><g class="entity" data-qualified-name="Web App Halc.n .Dashboard..Gesti.n de pedidos.UC_Edit" data-source-line="32" id="ent0023"><ellipse cx="437.324" cy="544.9997" fill="#F1F1F1" rx="74.064" ry="17.2128" style="stroke:#181818;stroke-width:0.5;"/><text fill="#000000" font-family="sans-serif" font-size="14" lengthAdjust="spacing" textLength="116.4502" x="379.0989" y="549.6481">Modificar pedido</text></g><!--entity UC_SoftDelete--><g class="entity" data-qualified-name="Web App Halc.n .Dashboard..Gesti.n de pedidos.UC_SoftDelete" data-source-line="33" id="ent0024"><ellipse cx="437.3179" cy="621.0011" fill="#F1F1F1" rx="73.3879" ry="23.9442" style="stroke:#181818;stroke-width:0.5;"/><text fill="#000000" font-family="sans-serif" font-size="14" lengthAdjust="spacing" textLength="109.5391" x="382.5484" y="620.6423">Eliminar pedido</text><text fill="#000000" font-family="sans-serif" font-size="14" lengthAdjust="spacing" textLength="52.418" x="411.1089" y="636.9392">(l&#243;gico)</text></g><!--entity UC_ListDeleted--><g class="entity" data-qualified-name="Web App Halc.n .Dashboard..Gesti.n de pedidos.UC_ListDeleted" data-source-line="35" id="ent0025"><ellipse cx="437.3181" cy="700.9985" fill="#F1F1F1" rx="94.5581" ry="21.3116" style="stroke:#181818;stroke-width:0.5;"/><text fill="#000000" font-family="sans-serif" font-size="14" lengthAdjust="spacing" textLength="163.9873" x="355.3244" y="705.6469">Ver pedidos eliminados</text></g><!--entity UC_EditDeleted--><g class="entity" data-qualified-name="Web App Halc.n .Dashboard..Gesti.n de pedidos.UC_EditDeleted" data-source-line="36" id="ent0026"><ellipse cx="437.3243" cy="778.9997" fill="#F1F1F1" rx="95.8643" ry="21.5729" style="stroke:#181818;stroke-width:0.5;"/><text fill="#000000" font-family="sans-serif" font-size="14" lengthAdjust="spacing" textLength="166.8994" x="353.8746" y="783.6482">Editar pedido eliminado</text></g><!--entity UC_Restore--><g class="entity" data-qualified-name="Web App Halc.n .Dashboard..Gesti.n de pedidos.UC_Restore" data-source-line="37" id="ent0027"><ellipse cx="437.3156" cy="405.992" fill="#F1F1F1" rx="75.8756" ry="17.5751" style="stroke:#181818;stroke-width:0.5;"/><text fill="#000000" font-family="sans-serif" font-size="14" lengthAdjust="spacing" textLength="120.8457" x="376.8927" y="410.6404">Restaurar pedido</text></g><!--entity UC_StatusOrdered--><g class="entity" data-qualified-name="Web App Halc.n .Dashboard..Ciclo de vida . Evidencias.UC_StatusOrdered" data-source-line="41" id="ent0029"><ellipse cx="783.151" cy="1134.0005" fill="#F1F1F1" rx="85.111" ry="23.8736" style="stroke:#181818;stroke-width:0.5;"/><text fill="#000000" font-family="sans-serif" font-size="14" lengthAdjust="spacing" textLength="128.2148" x="719.0436" y="1133.7544">Cambiar estatus a</text><text fill="#000000" font-family="sans-serif" font-size="14" lengthAdjust="spacing" textLength="57.5313" x="754.3854" y="1150.0513">Ordered</text></g><!--entity UC_StatusInProcess--><g class="entity" data-qualified-name="Web App Halc.n .Dashboard..Ciclo de vida . Evidencias.UC_StatusInProcess" data-source-line="42" id="ent0030"><ellipse cx="783.1455" cy="1299.9938" fill="#F1F1F1" rx="86.2255" ry="24.1569" style="stroke:#181818;stroke-width:0.5;"/><text fill="#000000" font-family="sans-serif" font-size="14" lengthAdjust="spacing" textLength="128.2148" x="719.0381" y="1299.2989">Cambiar estatus a</text><text fill="#000000" font-family="sans-serif" font-size="14" lengthAdjust="spacing" textLength="71.5586" x="747.3662" y="1315.5958">In process</text></g><!--entity UC_StatusInRoute--><g class="entity" data-qualified-name="Web App Halc.n .Dashboard..Ciclo de vida . Evidencias.UC_StatusInRoute" data-source-line="43" id="ent0031"><ellipse cx="783.151" cy="1216.9922" fill="#F1F1F1" rx="84.921" ry="23.8253" style="stroke:#181818;stroke-width:0.5;"/><text fill="#000000" font-family="sans-serif" font-size="14" lengthAdjust="spacing" textLength="128.2148" x="719.0436" y="1216.8235">Cambiar estatus a</text><text fill="#000000" font-family="sans-serif" font-size="14" lengthAdjust="spacing" textLength="54.749" x="755.7765" y="1233.1204">In route</text></g><!--entity UC_UploadLoaded--><g class="entity" data-qualified-name="Web App Halc.n .Dashboard..Ciclo de vida . Evidencias.UC_UploadLoaded" data-source-line="44" id="ent0032"><ellipse cx="783.1543" cy="1382.9944" fill="#F1F1F1" rx="94.6543" ry="23.9375" style="stroke:#181818;stroke-width:0.5;"/><text fill="#000000" font-family="sans-serif" font-size="14" lengthAdjust="spacing" textLength="142.6797" x="711.8145" y="1382.6462">Subir foto de unidad</text><text fill="#000000" font-family="sans-serif" font-size="14" lengthAdjust="spacing" textLength="67.8877" x="749.2105" y="1398.9431">(cargada)</text></g><!--entity UC_UploadDelivered--><g class="entity" data-qualified-name="Web App Halc.n .Dashboard..Ciclo de vida . Evidencias.UC_UploadDelivered" data-source-line="45" id="ent0033"><ellipse cx="783.1494" cy="1465.9987" fill="#F1F1F1" rx="92.9094" ry="23.9218" style="stroke:#181818;stroke-width:0.5;"/><text fill="#000000" font-family="sans-serif" font-size="14" lengthAdjust="spacing" textLength="140.0684" x="713.1152" y="1465.6756">Subir foto evidencia</text><text fill="#000000" font-family="sans-serif" font-size="14" lengthAdjust="spacing" textLength="65.7344" x="750.2822" y="1481.9725">(entrega)</text></g><!--entity UC_StatusDelivered--><g class="entity" data-qualified-name="Web App Halc.n .Dashboard..Ciclo de vida . Evidencias.UC_StatusDelivered" data-source-line="46" id="ent0034"><ellipse cx="1110.4113" cy="1461.0012" fill="#F1F1F1" rx="85.8613" ry="24.0643" style="stroke:#181818;stroke-width:0.5;"/><text fill="#000000" font-family="sans-serif" font-size="14" lengthAdjust="spacing" textLength="128.2148" x="1046.3039" y="1460.452">Cambiar estatus a</text><text fill="#000000" font-family="sans-serif" font-size="14" lengthAdjust="spacing" textLength="67.3271" x="1076.7477" y="1476.7489">Delivered</text></g><!--entity UC_ReportStock--><g class="entity" data-qualified-name="Web App Halc.n .Dashboard..Abasto.UC_ReportStock" data-source-line="50" id="ent0036"><ellipse cx="437.3213" cy="1007.9931" fill="#F1F1F1" rx="114.3313" ry="25.2663" style="stroke:#181818;stroke-width:0.5;"/><text fill="#000000" font-family="sans-serif" font-size="14" lengthAdjust="spacing" textLength="124.2568" x="375.1929" y="1002.3133">Reportar material</text><text fill="#000000" font-family="sans-serif" font-size="14" lengthAdjust="spacing" textLength="172.1904" x="351.2261" y="1018.6102">no existente / bajo stock</text></g><!--entity UC_BuyMissing--><g class="entity" data-qualified-name="Web App Halc.n .Dashboard..Abasto.UC_BuyMissing" data-source-line="51" id="ent0037"><ellipse cx="783.1539" cy="1008.9979" fill="#F1F1F1" rx="106.5039" ry="25.241" style="stroke:#181818;stroke-width:0.5;"/><text fill="#000000" font-family="sans-serif" font-size="14" lengthAdjust="spacing" textLength="151.6826" x="707.3126" y="1006.6595">Gestionar adquisici&#243;n</text><text fill="#000000" font-family="sans-serif" font-size="14" lengthAdjust="spacing" textLength="128.249" x="719.0294" y="1022.9564">(material faltante)</text></g><!--entity Emp--><g class="entity" data-qualified-name="Emp" data-source-line="5" id="ent0002"><ellipse cx="201.0321" cy="862.3469" fill="#F1F1F1" rx="8" ry="8" style="stroke:#181818;stroke-width:0.5;"/><path d="M201.0321,870.3469 L201.0321,897.3469 M188.0321,878.3469 L214.0321,878.3469 M201.0321,897.3469 L188.0321,912.3469 M201.0321,897.3469 L214.0321,912.3469" fill="none" style="stroke:#181818;stroke-width:0.5;"/><text fill="#000000" font-family="sans-serif" font-size="14" lengthAdjust="spacing" textLength="69.9043" x="166.08" y="926.842">Empleado</text></g><!--entity Admin--><g class="entity" data-qualified-name="Admin" data-source-line="6" id="ent0003"><ellipse cx="55.54" cy="265.3469" fill="#F1F1F1" rx="8" ry="8" style="stroke:#181818;stroke-width:0.5;"/><path d="M55.54,273.3469 L55.54,300.3469 M42.54,281.3469 L68.54,281.3469 M55.54,300.3469 L42.54,315.3469 M55.54,300.3469 L68.54,315.3469" fill="none" style="stroke:#181818;stroke-width:0.5;"/><text fill="#000000" font-family="sans-serif" font-size="14" lengthAdjust="spacing" textLength="99.0801" x="6" y="329.842">Administrador</text></g><!--entity Sales--><g class="entity" data-qualified-name="Sales" data-source-line="7" id="ent0004"><ellipse cx="55.5429" cy="591.3469" fill="#F1F1F1" rx="8" ry="8" style="stroke:#181818;stroke-width:0.5;"/><path d="M55.5429,599.3469 L55.5429,626.3469 M42.5429,607.3469 L68.5429,607.3469 M55.5429,626.3469 L42.5429,641.3469 M55.5429,626.3469 L68.5429,641.3469" fill="none" style="stroke:#181818;stroke-width:0.5;"/><text fill="#000000" font-family="sans-serif" font-size="14" lengthAdjust="spacing" textLength="48.4258" x="31.33" y="655.842">Ventas</text></g><!--entity Purchasing--><g class="entity" data-qualified-name="Purchasing" data-source-line="8" id="ent0005"><ellipse cx="55.5371" cy="908.3469" fill="#F1F1F1" rx="8" ry="8" style="stroke:#181818;stroke-width:0.5;"/><path d="M55.5371,916.3469 L55.5371,943.3469 M42.5371,924.3469 L68.5371,924.3469 M55.5371,943.3469 L42.5371,958.3469 M55.5371,943.3469 L68.5371,958.3469" fill="none" style="stroke:#181818;stroke-width:0.5;"/><text fill="#000000" font-family="sans-serif" font-size="14" lengthAdjust="spacing" textLength="62.4941" x="24.29" y="972.842">Compras</text></g><!--entity Warehouse--><g class="entity" data-qualified-name="Warehouse" data-source-line="9" id="ent0006"><ellipse cx="55.5436" cy="1065.3469" fill="#F1F1F1" rx="8" ry="8" style="stroke:#181818;stroke-width:0.5;"/><path d="M55.5436,1073.3469 L55.5436,1100.3469 M42.5436,1081.3469 L68.5436,1081.3469 M55.5436,1100.3469 L42.5436,1115.3469 M55.5436,1100.3469 L68.5436,1115.3469" fill="none" style="stroke:#181818;stroke-width:0.5;"/><text fill="#000000" font-family="sans-serif" font-size="14" lengthAdjust="spacing" textLength="60.8672" x="25.11" y="1129.842">Almac&#233;n</text></g><!--entity Route--><g class="entity" data-qualified-name="Route" data-source-line="10" id="ent0007"><ellipse cx="55.5445" cy="1394.3469" fill="#F1F1F1" rx="8" ry="8" style="stroke:#181818;stroke-width:0.5;"/><path d="M55.5445,1402.3469 L55.5445,1429.3469 M42.5445,1410.3469 L68.5445,1410.3469 M55.5445,1429.3469 L42.5445,1444.3469 M55.5445,1429.3469 L68.5445,1444.3469" fill="none" style="stroke:#181818;stroke-width:0.5;"/><text fill="#000000" font-family="sans-serif" font-size="14" lengthAdjust="spacing" textLength="32.6689" x="39.21" y="1458.842">Ruta</text></g><g class="entity" data-qualified-name="GMN60" data-source-line="85" id="ent0061"><path d="M1016.65,43.2969 L1016.65,98.6953 L1204.1681,98.6953 L1204.1681,53.2969 L1194.1681,43.2969 L1016.65,43.2969" fill="#FEFFDD" style="stroke:#181818;stroke-width:0.5;"/><path d="M1194.1681,43.2969 L1194.1681,53.2969 L1204.1681,53.2969 L1194.1681,43.2969" fill="#FEFFDD" style="stroke:#181818;stroke-width:1;"/><text fill="#000000" font-family="sans-serif" font-size="13" lengthAdjust="spacing" textLength="155.7207" x="1022.65" y="60.3638">La opci&#243;n de subir fotos</text><text fill="#000000" font-family="sans-serif" font-size="13" lengthAdjust="spacing" textLength="166.5181" x="1022.65" y="75.4966">solo debe ser visible para</text><text fill="#000000" font-family="sans-serif" font-size="13" lengthAdjust="spacing" textLength="147.1704" x="1022.65" y="90.6294">el departamento Ruta.</text></g><!--link Sales to Emp--><g class="link" data-entity-1="ent0004" data-entity-2="ent0002" data-link-type="extension" data-source-line="12" id="lnk8"><path d="M65.59,659.3969 C77.06,703.0069 99.71,775.1069 135.08,828.9969 C143.44,841.7369 141.6282,841.5882 152.5082,851.7382" fill="none" id="Sales-to-Emp" style="stroke:#181818;stroke-width:1;"/><polygon fill="none" points="165.67,864.0169,156.6011,847.3509,148.4153,856.1254,165.67,864.0169" style="stroke:#181818;stroke-width:1;"/></g><!--link Purchasing to Emp--><g class="link" data-entity-1="ent0005" data-entity-2="ent0002" data-link-type="extension" data-source-line="13" id="lnk9"><path d="M86.97,928.2369 C110.01,920.8569 124.519,916.2011 148.479,908.5211" fill="none" id="Purchasing-to-Emp" style="stroke:#181818;stroke-width:1;"/><polygon fill="none" points="165.62,903.0269,146.6476,902.8075,150.3104,914.2348,165.62,903.0269" style="stroke:#181818;stroke-width:1;"/></g><!--link Warehouse to Emp--><g class="link" data-entity-1="ent0006" data-entity-2="ent0002" data-link-type="extension" data-source-line="14" id="lnk10"><path d="M74.28,1056.6169 C88.66,1027.3969 110.52,986.9069 135.08,954.9969 C144.09,943.2969 142.2055,944.1107 152.7055,934.1107" fill="none" id="Warehouse-to-Emp" style="stroke:#181818;stroke-width:1;"/><polygon fill="none" points="165.74,921.6969,148.5676,929.7658,156.8434,938.4555,165.74,921.6969" style="stroke:#181818;stroke-width:1;"/></g><!--link Route to Emp--><g class="link" data-entity-1="ent0007" data-entity-2="ent0002" data-link-type="extension" data-source-line="15" id="lnk11"><path d="M66.86,1385.7369 C93.27,1287.8169 158.4024,1046.3258 184.9224,948.0058" fill="none" id="Route-to-Emp" style="stroke:#181818;stroke-width:1;"/><polygon fill="none" points="189.61,930.6269,179.1294,946.4432,190.7153,949.5683,189.61,930.6269" style="stroke:#181818;stroke-width:1;"/></g><!--link Admin to Emp--><g class="link" data-entity-1="ent0003" data-entity-2="ent0002" data-link-type="extension" data-source-line="16" id="lnk12"><path d="M65.73,333.2469 C91.62,440.9469 160.7143,728.3951 186.6143,836.1751" fill="none" id="Admin-to-Emp" style="stroke:#181818;stroke-width:1;"/><polygon fill="none" points="190.82,853.6769,192.4482,834.7732,180.7803,837.577,190.82,853.6769" style="stroke:#181818;stroke-width:1;"/></g><!--link Emp to UC_Login--><g class="link" data-entity-1="ent0002" data-entity-2="ent0014" data-link-type="dependency" data-source-line="55" id="lnk38"><path d="M236.1,895.6369 C273.28,899.5969 327.5139,905.3901 372.2039,910.1601" fill="none" id="Emp-to-UC_Login" style="stroke:#181818;stroke-width:1;"/><polygon fill="#181818" points="378.17,910.7969,369.6454,905.8643,373.1982,910.2662,368.7963,913.8191,378.17,910.7969" style="stroke:#181818;stroke-width:1;"/></g><!--link Emp to UC_List--><g class="link" data-entity-1="ent0002" data-entity-2="ent0019" data-link-type="dependency" data-source-line="56" id="lnk39"><path d="M236.27,880.9369 C248.4,877.3469 262.2,873.6169 274.98,870.9969 C307.34,864.3769 337.8437,860.2616 367.9237,857.0616" fill="none" id="Emp-to-UC_List" style="stroke:#181818;stroke-width:1;"/><polygon fill="#181818" points="373.89,856.4269,364.5174,853.4014,368.9181,856.9558,365.3636,861.3565,373.89,856.4269" style="stroke:#181818;stroke-width:1;"/></g><!--link UC_List to UC_Search--><g class="link" data-entity-1="ent0019" data-entity-2="ent0020" data-link-type="dependency" data-source-line="57" id="lnk40"><path d="M503.39,848.1569 C563.45,845.5369 646.3457,841.9185 707.5157,839.2485" fill="none" id="UC_List-to-UC_Search" style="stroke:#181818;stroke-width:1;stroke-dasharray:7,7;"/><polygon fill="#181818" points="713.51,838.9869,704.3441,835.3831,708.5148,839.2049,704.693,843.3755,713.51,838.9869" style="stroke:#181818;stroke-width:1;"/><text fill="#000000" font-family="sans-serif" font-size="13" lengthAdjust="spacing" textLength="63.0068" x="582.65" y="839.0638">&#171;include&#187;</text></g><!--link UC_List to UC_View--><g class="link" data-entity-1="ent0019" data-entity-2="ent0021" data-link-type="dependency" data-source-line="58" id="lnk41"><path d="M484.33,839.3569 C545.82,823.7969 649.0433,797.6785 716.7533,780.5485" fill="none" id="UC_List-to-UC_View" style="stroke:#181818;stroke-width:1;stroke-dasharray:7,7;"/><polygon fill="#181818" points="722.57,779.0769,712.8638,777.4064,717.7227,780.3032,714.8259,785.1621,722.57,779.0769" style="stroke:#181818;stroke-width:1;"/><text fill="#000000" font-family="sans-serif" font-size="13" lengthAdjust="spacing" textLength="63.0068" x="582.65" y="796.0638">&#171;include&#187;</text></g><!--link Sales to UC_Create--><g class="link" data-entity-1="ent0004" data-entity-2="ent0022" data-link-type="dependency" data-source-line="60" id="lnk42"><path d="M79.98,604.0369 C95.28,593.3369 115.9,579.5869 135.08,568.9969 C167.62,551.0269 238.35,521.3169 274.98,509.9969 C307.94,499.8069 339.7129,492.7832 370.3629,487.0332" fill="none" id="Sales-to-UC_Create" style="stroke:#181818;stroke-width:1;"/><polygon fill="#181818" points="376.26,485.9269,366.6768,483.6549,371.3457,486.8488,368.1519,491.5178,376.26,485.9269" style="stroke:#181818;stroke-width:1;"/></g><!--link Sales to UC_Edit--><g class="link" data-entity-1="ent0004" data-entity-2="ent0023" data-link-type="dependency" data-source-line="61" id="lnk43"><path d="M79.98,612.1769 C95.44,606.6169 116.26,599.6469 135.08,594.9969 C215.24,575.2069 303.4115,561.7712 364.8415,553.6712" fill="none" id="Sales-to-UC_Edit" style="stroke:#181818;stroke-width:1;"/><polygon fill="#181818" points="370.79,552.8869,361.3443,550.0977,365.8329,553.5405,362.3901,558.0291,370.79,552.8869" style="stroke:#181818;stroke-width:1;"/></g><!--link Sales to UC_SoftDelete--><g class="link" data-entity-1="ent0004" data-entity-2="ent0024" data-link-type="dependency" data-source-line="62" id="lnk44"><path d="M80.01,620.9969 C135.48,620.9969 270.54,620.9969 357.61,620.9969" fill="none" id="Sales-to-UC_SoftDelete" style="stroke:#181818;stroke-width:1;"/><polygon fill="#181818" points="363.61,620.9969,354.61,616.9969,358.61,620.9969,354.61,624.9969,363.61,620.9969" style="stroke:#181818;stroke-width:1;"/></g><!--link Sales to UC_ListDeleted--><g class="link" data-entity-1="ent0004" data-entity-2="ent0025" data-link-type="dependency" data-source-line="63" id="lnk45"><path d="M80.01,625.9369 C136.21,637.7769 274.3788,666.8905 361.1388,685.1605" fill="none" id="Sales-to-UC_ListDeleted" style="stroke:#181818;stroke-width:1;"/><polygon fill="#181818" points="367.01,686.3969,359.0274,680.6282,362.1173,685.3666,357.3789,688.4565,367.01,686.3969" style="stroke:#181818;stroke-width:1;"/></g><!--link Sales to UC_EditDeleted--><g class="link" data-entity-1="ent0004" data-entity-2="ent0026" data-link-type="dependency" data-source-line="64" id="lnk46"><path d="M80.11,636.5469 C119.12,661.6369 200.24,711.1769 274.98,739.9969 C302.68,750.6769 328.3449,757.7664 356.1349,763.9864" fill="none" id="Sales-to-UC_EditDeleted" style="stroke:#181818;stroke-width:1;"/><polygon fill="#181818" points="361.99,765.2969,354.081,759.4277,357.1107,764.2048,352.3336,767.2345,361.99,765.2969" style="stroke:#181818;stroke-width:1;"/></g><!--link Sales to UC_Restore--><g class="link" data-entity-1="ent0004" data-entity-2="ent0027" data-link-type="dependency" data-source-line="65" id="lnk47"><path d="M80.09,593.2769 C116.93,552.0569 192.57,475.7369 274.98,440.9969 C305.09,428.3069 334.4732,421.0305 364.3532,415.7005" fill="none" id="Sales-to-UC_Restore" style="stroke:#181818;stroke-width:1;"/><polygon fill="#181818" points="370.26,414.6469,360.6974,412.2895,365.3377,415.5249,362.1023,420.1652,370.26,414.6469" style="stroke:#181818;stroke-width:1;"/></g><!--link Admin to UC_AddUser--><g class="link" data-entity-1="ent0003" data-entity-2="ent0016" data-link-type="dependency" data-source-line="67" id="lnk48"><path d="M105.41,294.9969 C170.32,294.9969 279.59,294.9969 355.49,294.9969" fill="none" id="Admin-to-UC_AddUser" style="stroke:#181818;stroke-width:1;"/><polygon fill="#181818" points="361.49,294.9969,352.49,290.9969,356.49,294.9969,352.49,298.9969,361.49,294.9969" style="stroke:#181818;stroke-width:1;"/></g><!--link Admin to UC_AssignRole--><g class="link" data-entity-1="ent0003" data-entity-2="ent0017" data-link-type="dependency" data-source-line="68" id="lnk49"><path d="M105.22,277.6069 C115.03,274.4669 125.32,271.4269 135.08,268.9969 C213.06,249.6069 298.306,236.1244 359.746,227.6744" fill="none" id="Admin-to-UC_AssignRole" style="stroke:#181818;stroke-width:1;"/><polygon fill="#181818" points="365.69,226.8569,356.2289,224.1204,360.7366,227.5381,357.3189,232.0458,365.69,226.8569" style="stroke:#181818;stroke-width:1;"/></g><!--link Warehouse to UC_StatusInProcess--><g class="link" data-entity-1="ent0006" data-entity-2="ent0030" data-link-type="dependency" data-source-line="70" id="lnk50"><path d="M86.31,1109.3469 C127.79,1128.8969 205.69,1163.9569 274.98,1185.9969 C426.13,1234.0669 602.8727,1268.8165 702.5327,1286.5365" fill="none" id="Warehouse-to-UC_StatusInProcess" style="stroke:#181818;stroke-width:1;"/><polygon fill="#181818" points="708.44,1287.5869,700.2792,1282.0731,703.5172,1286.7116,698.8787,1289.9496,708.44,1287.5869" style="stroke:#181818;stroke-width:1;"/></g><!--link Warehouse to UC_StatusInRoute--><g class="link" data-entity-1="ent0006" data-entity-2="ent0031" data-link-type="dependency" data-source-line="71" id="lnk51"><path d="M86.34,1100.0069 C192.41,1117.8369 547.6831,1177.5719 703.6031,1203.7919" fill="none" id="Warehouse-to-UC_StatusInRoute" style="stroke:#181818;stroke-width:1;"/><polygon fill="#181818" points="709.52,1204.7869,701.308,1199.3497,704.5892,1203.9577,699.9813,1207.239,709.52,1204.7869" style="stroke:#181818;stroke-width:1;"/></g><!--link Warehouse to UC_ReportStock--><g class="link" data-entity-1="ent0006" data-entity-2="ent0036" data-link-type="dependency" data-source-line="72" id="lnk52"><path d="M86.34,1088.1669 C143.96,1074.9669 266.5114,1046.8964 350.7314,1027.6064" fill="none" id="Warehouse-to-UC_ReportStock" style="stroke:#181818;stroke-width:1;"/><polygon fill="#181818" points="356.58,1026.2669,346.9141,1024.3772,351.7062,1027.3832,348.7002,1032.1753,356.58,1026.2669" style="stroke:#181818;stroke-width:1;"/></g><!--link Purchasing to UC_BuyMissing--><g class="link" data-entity-1="ent0005" data-entity-2="ent0037" data-link-type="dependency" data-source-line="74" id="lnk53"><path d="M87.03,961.4869 C126.01,989.8969 196.76,1036.1069 265.98,1053.9969 C423.62,1094.7369 610.5833,1056.9156 709.9933,1030.3556" fill="none" id="Purchasing-to-UC_BuyMissing" style="stroke:#181818;stroke-width:1;"/><polygon fill="#181818" points="715.79,1028.8069,706.0625,1027.2655,710.9594,1030.0975,708.1275,1034.9944,715.79,1028.8069" style="stroke:#181818;stroke-width:1;"/></g><!--link UC_ReportStock to UC_BuyMissing--><g class="link" data-entity-1="ent0036" data-entity-2="ent0037" data-link-type="dependency" data-source-line="75" id="lnk54"><path d="M551.85,1008.3269 C591.95,1008.4469 630.86,1008.5601 670.3,1008.6701" fill="none" id="UC_ReportStock-to-UC_BuyMissing" style="stroke:#181818;stroke-width:1;stroke-dasharray:7,7;"/><polygon fill="#181818" points="676.3,1008.6869,667.3112,1004.6618,671.3,1008.6729,667.2889,1012.6618,676.3,1008.6869" style="stroke:#181818;stroke-width:1;"/><text fill="#000000" font-family="sans-serif" font-size="13" lengthAdjust="spacing" textLength="63.0068" x="582.65" y="1004.0638">&#171;include&#187;</text></g><!--link Route to UC_UploadLoaded--><g class="link" data-entity-1="ent0007" data-entity-2="ent0032" data-link-type="dependency" data-source-line="77" id="lnk55"><path d="M72.37,1423.1069 C152.58,1418.5669 511.0596,1398.3155 684.2396,1388.5255" fill="none" id="Route-to-UC_UploadLoaded" style="stroke:#181818;stroke-width:1;"/><polygon fill="#181818" points="690.23,1388.1869,681.0186,1384.7012,685.238,1388.4691,681.4701,1392.6885,690.23,1388.1869" style="stroke:#181818;stroke-width:1;"/></g><!--link Route to UC_UploadDelivered--><g class="link" data-entity-1="ent0007" data-entity-2="ent0033" data-link-type="dependency" data-source-line="78" id="lnk56"><path d="M72.37,1424.9169 C152.84,1429.5669 513.42,1450.44 685.91,1460.43" fill="none" id="Route-to-UC_UploadDelivered" style="stroke:#181818;stroke-width:1;"/><polygon fill="#181818" points="691.9,1460.7769,683.1463,1456.2632,686.9084,1460.4878,682.6838,1464.2498,691.9,1460.7769" style="stroke:#181818;stroke-width:1;"/></g><!--link Route to UC_StatusDelivered--><g class="link" data-entity-1="ent0007" data-entity-2="ent0034" data-link-type="dependency" data-source-line="79" id="lnk57"><path d="M72.34,1450.4069 C95.55,1485.4669 142.42,1542.9969 200.03,1542.9969 C200.03,1542.9969 200.03,1542.9969 784.15,1542.9969 C885.19,1542.9969 993.0854,1507.505 1055.7354,1483.225" fill="none" id="Route-to-UC_StatusDelivered" style="stroke:#181818;stroke-width:1;"/><polygon fill="#181818" points="1061.33,1481.0569,1051.4927,1480.5794,1056.6679,1482.8637,1054.3836,1488.0388,1061.33,1481.0569" style="stroke:#181818;stroke-width:1;"/></g><!--link UC_Create to UC_StatusOrdered--><g class="link" data-entity-1="ent0022" data-entity-2="ent0029" data-link-type="dependency" data-source-line="81" id="lnk58"><path d="M506.27,482.6469 C523.51,487.6469 540.33,496.0369 551.65,509.9969 C602.2,572.3569 555.12,794.2269 581.65,869.9969 C598.79,918.9769 626.44,919.1969 646.65,966.9969 C661.51,1002.1569 643.49,1019.1369 664.5,1050.9969 C682.45,1078.2269 707.4367,1096.35 732.7467,1110.43" fill="none" id="UC_Create-to-UC_StatusOrdered" style="stroke:#181818;stroke-width:1;stroke-dasharray:7,7;"/><polygon fill="#181818" points="737.99,1113.3469,732.0696,1105.4761,733.6206,1110.9162,728.1805,1112.4671,737.99,1113.3469" style="stroke:#181818;stroke-width:1;"/><text fill="#000000" font-family="sans-serif" font-size="13" lengthAdjust="spacing" textLength="63.0068" x="582.65" y="866.0638">&#171;include&#187;</text></g><!--link UC_UploadDelivered to UC_StatusDelivered--><g class="link" data-entity-1="ent0033" data-entity-2="ent0034" data-link-type="dependency" data-source-line="82" id="lnk59"><path d="M876.05,1464.5869 C922.64,1463.8669 972.8507,1463.099 1018.4307,1462.399" fill="none" id="UC_UploadDelivered-to-UC_StatusDelivered" style="stroke:#181818;stroke-width:1;stroke-dasharray:7,7;"/><polygon fill="#181818" points="1024.43,1462.3069,1015.3696,1458.4455,1019.4306,1462.3837,1015.4925,1466.4446,1024.43,1462.3069" style="stroke:#181818;stroke-width:1;"/><text fill="#000000" font-family="sans-serif" font-size="13" lengthAdjust="spacing" textLength="63.0068" x="922.65" y="1458.0638">&#171;include&#187;</text></g><!--link UC_UploadLoaded to GMN60--><g class="link" data-entity-1="ent0032" data-entity-2="ent0061" data-link-type="association" data-source-line="85" id="lnk62"><path d="M866.88,1371.5869 C884.56,1365.4669 901.53,1356.1469 913.65,1341.9969 C1081.54,1146.0869 1105.84,267.9269 1108.98,99.1169" fill="none" id="UC_UploadLoaded-GMN60" style="stroke:#181818;stroke-width:1;stroke-dasharray:7,7;"/></g><?plantuml-src ZLRDRjGm4BxdAKPxeeUMEqAHbcq5bLfHxQhjfHAQZMTJKwyTRAU0W0VYt4VeYp7sRfmusOeUeYWpttoUVyTBhmW-eQgUdpGSmmATSI08hfs1DwVexjS6hO1pxSbgSrGesdZm1goixpq8QQdoqkZ2FKZTeCKjD5WzO4qh_vEPWnfrhQWeiFB6mknisoX2OMQ03lYZay_5Lchfl6MTZSeewTGtf3swA5-X8jV95sRRsBtYghNLFJgfwqIgjbWz_zLHVOkMxathgDCkMuzHipIjPmyZCHmV_owZOprTBqiSlIWQzv_Hw_wpI1c0sIsjOTuqATrzVezcyAi0ODuAcNjshcKbqO8Z9naPdRnUVBamDMU4WViSm-mZEHyGeMIjQz5AutPS0xObrJ6njeDqV7CXhXtP73rtijQCjKRTwJU2kAeUjvn-SvJiNC0i3PSLuC-B3ZKaf3ZWpmLxmmSazJuubkQu3wshfhWL8TSbHzwGvGCzAavpEhWpk97qlNWf8pbqOGazvTXB8-H6LXFicP0ZVy-KvDed86TFFJ_LikeJjp8RVqgAGhTD0jZ72RIZ6QLcPoP69x8FwRpUSEZYGRibLmdRQVn1RkoqgWjPAHCo-oW5mbiuupTfRj5fSHUuNOVM3IVurW7UwSzMa2MHaX0LU-5_ZSyrDDPKv5nkVwwlTkBNCDWmesFxtTHdrgjsBIriZ8_1jfgZ5Ln6BdwD0bCPhnjbK5pmCmvWG41TZfY0fyTIFIRWqiZ7LoKX8VCOXWHvmUPhv4eUs0IDiQ5ZjjpcLY9Fk6PFVt1_iOl4bLtZLmDiMZtqFH5iLa6KayLHDw7VKNnhfUELnOFFqNRai475kyzJYlj3-_DIkhYXWyViC-z8NfPblzs6Wh0HzcyuEIdxwOTtyFwzr9Lg1PNb61C6VeH8kxqSZ7acY-ESIGR3cic7qpYXEAZenYfT3kLm--R2VhLcbqrvgFDV1EnQUw8UbZA_tifHTN9mbzWUC4vlTmcMa_4ueEdRDbEEUxf8bKh57swEQG-Cs7EhNZnoNHi-OFSxOpO7fli2mJHLTwUvDE1XyJWJr-AQvRp07ta6rdm3XVyWLfA2uUq9uNVZf20j81pv3m00?></g></svg>